<svg width="176" height="286" version="1.1" xmlns="http://www.w3.org/2000/svg" desc="Created with imagetracer.js version 1.2.5" ><path fill="rgb(251,200,25)" stroke="rgb(251,200,25)" stroke-width="1" opacity="1" d="M 74.5 1 L 81 1.5 L 74.5 2 L 74.5 1 Z " /><path fill="rgb(251,200,25)" stroke="rgb(251,200,25)" stroke-width="1" opacity="1" d="M 94.5 1 L 101 1.5 L 94.5 2 L 94.5 1 Z " /><path fill="rgb(251,200,25)" stroke="rgb(251,200,25)" stroke-width="1" opacity="1" d="M 69.5 2 L 73 2.5 L 69.5 3 L 69.5 2 Z " /><path fill="rgb(251,200,25)" stroke="rgb(251,200,25)" stroke-width="1" opacity="1" d="M 102.5 2 L 107 2.5 L 102.5 3 L 102.5 2 Z " /><path fill="rgb(251,200,25)" stroke="rgb(251,200,25)" stroke-width="1" opacity="1" d="M 65.5 3 L 68 3.5 L 65.5 4 L 65.5 3 Z " /><path fill="rgb(251,200,25)" stroke="rgb(251,200,25)" stroke-width="1" opacity="1" d="M 108.5 3 L 114 4.5 L 111.5 5 L 108.5 4 L 108.5 3 Z " /><path fill="rgb(251,200,25)" stroke="rgb(251,200,25)" stroke-width="1" opacity="1" d="M 61.5 4 L 64 4.5 L 61.5 5 L 61.5 4 Z " /><path fill="rgb(251,200,25)" stroke="rgb(251,200,25)" stroke-width="1" opacity="1" d="M 123.5 8 L 127 9.5 L 125.5 10 L 123.5 8 Z " /><path fill="rgb(251,200,25)" stroke="rgb(251,200,25)" stroke-width="1" opacity="1" d="M 130.5 11 L 136 14.5 L 134.5 14 Q 130.5 13.5 130.5 11 Z " /><path fill="rgb(251,200,25)" stroke="rgb(251,200,25)" stroke-width="1" opacity="1" d="M 43.5 12 L 42.5 14 L 40.5 15 L 41.5 13 L 43.5 12 Z " /><path fill="rgb(251,200,25)" stroke="rgb(251,200,25)" stroke-width="1" opacity="1" d="M 38.5 15 L 37.5 17 L 38.5 15 Z " /><path fill="rgb(251,200,25)" stroke="rgb(251,200,25)" stroke-width="1" opacity="1" d="M 137.5 15 L 139.5 18 L 137.5 15 Z " /><path fill="rgb(251,200,25)" stroke="rgb(251,200,25)" stroke-width="1" opacity="1" d="M 35.5 17 L 32.5 21 L 35.5 17 Z " /><path fill="rgb(251,200,25)" stroke="rgb(251,200,25)" stroke-width="1" opacity="1" d="M 141.5 18 L 143.5 21 L 141.5 18 Z " /><path fill="rgb(251,200,25)" stroke="rgb(251,200,25)" stroke-width="1" opacity="1" d="M 29.5 22 L 22.5 30 L 29.5 22 Z " /><path fill="rgb(251,200,25)" stroke="rgb(251,200,25)" stroke-width="1" opacity="1" d="M 146.5 22 L 153.5 30 L 146.5 22 Z " /><path fill="rgb(251,200,25)" stroke="rgb(251,200,25)" stroke-width="1" opacity="1" d="M 21.5 31 L 18.5 35 L 21.5 31 Z " /><path fill="rgb(251,200,25)" stroke="rgb(251,200,25)" stroke-width="1" opacity="1" d="M 155.5 32 L 157.5 35 L 155.5 32 Z " /><path fill="rgb(251,200,25)" stroke="rgb(251,200,25)" stroke-width="1" opacity="1" d="M 17.5 36 L 15.5 39 L 17.5 36 Z " /><path fill="rgb(251,200,25)" stroke="rgb(251,200,25)" stroke-width="1" opacity="1" d="M 158.5 36 L 160.5 39 L 158.5 36 Z " /><path fill="rgb(251,200,25)" stroke="rgb(251,200,25)" stroke-width="1" opacity="1" d="M 14.5 40 L 13.5 42 L 14.5 40 Z " /><path fill="rgb(251,200,25)" stroke="rgb(251,200,25)" stroke-width="1" opacity="1" d="M 161.5 40 L 162.5 42 L 161.5 40 Z " /><path fill="rgb(251,200,25)" stroke="rgb(251,200,25)" stroke-width="1" opacity="1" d="M 11.5 45 L 11 46.5 L 10.5 48 L 10 46.5 L 11.5 45 Z " /><path fill="rgb(251,200,25)" stroke="rgb(251,200,25)" stroke-width="1" opacity="1" d="M 3.5 64 L 4 66.5 L 3 66.5 L 3.5 64 Z " /><path fill="rgb(251,200,25)" stroke="rgb(251,200,25)" stroke-width="1" opacity="1" d="M 172.5 64 L 173 66.5 L 172 66.5 L 172.5 64 Z " /><path fill="rgb(251,200,25)" stroke="rgb(251,200,25)" stroke-width="1" opacity="1" d="M 2.5 68 L 3 71.5 L 2 71.5 L 2.5 68 Z " /><path fill="rgb(251,200,25)" stroke="rgb(251,200,25)" stroke-width="1" opacity="1" d="M 173.5 68 L 174 71.5 L 173 71.5 L 173.5 68 Z " /><path fill="rgb(251,200,25)" stroke="rgb(251,200,25)" stroke-width="1" opacity="1" d="M 1.5 73 L 2 79.5 L 1 79.5 L 1.5 73 Z " /><path fill="rgb(251,200,25)" stroke="rgb(251,200,25)" stroke-width="1" opacity="1" d="M 174.5 73 L 175 79.5 L 174 79.5 L 174.5 73 Z " /><path fill="rgb(251,200,25)" stroke="rgb(251,200,25)" stroke-width="1" opacity="1" d="M 174.5 93 L 175 99.5 L 174 99.5 L 174.5 93 Z " /><path fill="rgb(251,200,25)" stroke="rgb(251,200,25)" stroke-width="1" opacity="1" d="M 1.5 94 L 2 99.5 L 1 99.5 L 1.5 94 Z " /><path fill="rgb(251,200,25)" stroke="rgb(251,200,25)" stroke-width="1" opacity="1" d="M 2.5 101 L 3 104.5 L 2 104.5 L 2.5 101 Z " /><path fill="rgb(251,200,25)" stroke="rgb(251,200,25)" stroke-width="1" opacity="1" d="M 173.5 101 L 174 104.5 L 173 104.5 L 173.5 101 Z " /><path fill="rgb(251,200,25)" stroke="rgb(251,200,25)" stroke-width="1" opacity="1" d="M 3.5 106 L 4 108.5 L 3 108.5 L 3.5 106 Z " /><path fill="rgb(251,200,25)" stroke="rgb(251,200,25)" stroke-width="1" opacity="1" d="M 172.5 106 L 173 108.5 L 172 108.5 L 172.5 106 Z " /><path fill="rgb(251,200,25)" stroke="rgb(251,200,25)" stroke-width="1" opacity="1" d="M 170.5 113 L 171 114.5 L 169.5 117 L 169 115.5 L 170.5 113 Z " /><path fill="rgb(251,200,25)" stroke="rgb(251,200,25)" stroke-width="1" opacity="1" d="M 8.5 120 L 10 123.5 L 9 123.5 L 8.5 120 Z " /><path fill="rgb(251,200,25)" stroke="rgb(251,200,25)" stroke-width="1" opacity="1" d="M 165.5 124 L 166 125.5 L 159.5 137 L 160 135.5 L 165.5 124 Z " /><path fill="rgb(251,200,25)" stroke="rgb(251,200,25)" stroke-width="1" opacity="1" d="M 11.5 127 L 15 132.5 L 13 131.5 L 11.5 127 Z " /><path fill="rgb(251,200,25)" stroke="rgb(251,200,25)" stroke-width="1" opacity="1" d="M 16.5 136 L 19 139.5 L 17 138.5 L 16.5 136 Z " /><path fill="rgb(251,200,25)" stroke="rgb(251,200,25)" stroke-width="1" opacity="1" d="M 156.5 142 L 156 143.5 L 154.5 146 L 155 144.5 L 156.5 142 Z " /><path fill="rgb(251,200,25)" stroke="rgb(251,200,25)" stroke-width="1" opacity="1" d="M 20.5 143 L 23 146.5 L 21 145.5 L 20.5 143 Z " /><path fill="rgb(251,200,25)" stroke="rgb(251,200,25)" stroke-width="1" opacity="1" d="M 152.5 149 L 151.5 151 L 152.5 149 Z " /><path fill="rgb(251,200,25)" stroke="rgb(251,200,25)" stroke-width="1" opacity="1" d="M 24.5 150 L 25.5 152 L 24.5 150 Z " /><path fill="rgb(251,200,25)" stroke="rgb(251,200,25)" stroke-width="1" opacity="1" d="M 150.5 152 L 149.5 154 L 150.5 152 Z " /><path fill="rgb(251,200,25)" stroke="rgb(251,200,25)" stroke-width="1" opacity="1" d="M 26.5 153 L 27.5 155 L 26.5 153 Z " /><path fill="rgb(251,200,25)" stroke="rgb(251,200,25)" stroke-width="1" opacity="1" d="M 148.5 155 L 148 156.5 L 144.5 162 L 145 160.5 L 148.5 155 Z " /><path fill="rgb(251,200,25)" stroke="rgb(251,200,25)" stroke-width="1" opacity="1" d="M 28.5 156 L 33 162.5 L 31 161.5 L 28.5 156 Z " /><path fill="rgb(251,200,25)" stroke="rgb(251,200,25)" stroke-width="1" opacity="1" d="M 143.5 163 L 142.5 165 L 143.5 163 Z " /><path fill="rgb(251,200,25)" stroke="rgb(251,200,25)" stroke-width="1" opacity="1" d="M 33.5 164 L 34.5 166 L 33.5 164 Z " /><path fill="rgb(251,200,25)" stroke="rgb(251,200,25)" stroke-width="1" opacity="1" d="M 141.5 166 L 140.5 168 L 141.5 166 Z " /><path fill="rgb(251,200,25)" stroke="rgb(251,200,25)" stroke-width="1" opacity="1" d="M 35.5 167 L 36.5 169 L 35.5 167 Z " /><path fill="rgb(251,200,25)" stroke="rgb(251,200,25)" stroke-width="1" opacity="1" d="M 139.5 169 L 139 170.5 L 133.5 179 L 134 177.5 L 139.5 169 Z " /><path fill="rgb(251,200,25)" stroke="rgb(251,200,25)" stroke-width="1" opacity="1" d="M 37.5 170 L 42 176.5 L 40 175.5 L 37.5 170 Z " /><path fill="rgb(251,200,25)" stroke="rgb(251,200,25)" stroke-width="1" opacity="1" d="M 42.5 178 L 43.5 180 L 42.5 178 Z " /><path fill="rgb(251,200,25)" stroke="rgb(251,200,25)" stroke-width="1" opacity="1" d="M 132.5 180 L 131.5 182 L 132.5 180 Z " /><path fill="rgb(251,200,25)" stroke="rgb(251,200,25)" stroke-width="1" opacity="1" d="M 44.5 181 L 45.5 183 L 44.5 181 Z " /><path fill="rgb(251,200,25)" stroke="rgb(251,200,25)" stroke-width="1" opacity="1" d="M 130.5 183 L 130 184.5 L 128.5 187 L 129 185.5 L 130.5 183 Z " /><path fill="rgb(251,200,25)" stroke="rgb(251,200,25)" stroke-width="1" opacity="1" d="M 46.5 184 L 49 187.5 L 47 186.5 L 46.5 184 Z " /><path fill="rgb(251,200,25)" stroke="rgb(251,200,25)" stroke-width="1" opacity="1" d="M 127.5 188 L 127 189.5 L 125.5 192 L 126 190.5 L 127.5 188 Z " /><path fill="rgb(251,200,25)" stroke="rgb(251,200,25)" stroke-width="1" opacity="1" d="M 49.5 189 L 52 192.5 L 50 191.5 L 49.5 189 Z " /><path fill="rgb(251,200,25)" stroke="rgb(251,200,25)" stroke-width="1" opacity="1" d="M 124.5 193 L 124 194.5 L 122.5 197 L 123 195.5 L 124.5 193 Z " /><path fill="rgb(251,200,25)" stroke="rgb(251,200,25)" stroke-width="1" opacity="1" d="M 52.5 194 L 55 197.5 L 53 196.5 L 52.5 194 Z " /><path fill="rgb(251,200,25)" stroke="rgb(251,200,25)" stroke-width="1" opacity="1" d="M 121.5 198 L 121 199.5 L 119.5 202 L 120 200.5 L 121.5 198 Z " /><path fill="rgb(251,200,25)" stroke="rgb(251,200,25)" stroke-width="1" opacity="1" d="M 55.5 199 L 58 202.5 L 56 201.5 L 55.5 199 Z " /><path fill="rgb(251,200,25)" stroke="rgb(251,200,25)" stroke-width="1" opacity="1" d="M 117.5 205 L 117 206.5 L 110.5 219 L 111 217.5 L 117.5 205 Z " /><path fill="rgb(251,200,25)" stroke="rgb(251,200,25)" stroke-width="1" opacity="1" d="M 61.5 210 L 69 224.5 L 68 224.5 L 61.5 210 Z " /><path fill="rgb(251,200,25)" stroke="rgb(251,200,25)" stroke-width="1" opacity="1" d="M 107.5 224 L 108 225.5 L 106.5 228 L 106 226.5 L 107.5 224 Z " /><path fill="rgb(251,200,25)" stroke="rgb(251,200,25)" stroke-width="1" opacity="1" d="M 99.5 243 L 100 244.5 L 98.5 247 L 98 245.5 L 99.5 243 Z " /><path fill="rgb(251,200,25)" stroke="rgb(251,200,25)" stroke-width="1" opacity="1" d="M 77.5 245 L 79 248.5 L 78 248.5 L 77.5 245 Z " /><path fill="rgb(251,200,25)" stroke="rgb(251,200,25)" stroke-width="1" opacity="1" d="M 85.5 269 L 86 271.5 L 85 271.5 L 85.5 269 Z " /><path fill="rgb(251,200,25)" stroke="rgb(251,200,25)" stroke-width="1" opacity="1" d="M 86.5 273 L 87 275.5 L 86 275.5 L 86.5 273 Z " /><path fill="rgb(251,200,25)" stroke="rgb(251,200,25)" stroke-width="1" opacity="1" d="M 87.5 277 L 89 282.5 L 88 282.5 L 87.5 277 Z " /><path fill="rgb(252,203,42)" stroke="rgb(252,203,42)" stroke-width="1" opacity="1" d="M 82.5 0 L 92.5 0 Q 94 3.5 100.5 2 L 102 1.5 Q 101.1 4.9 106.5 3 L 108 2.5 Q 107.2 5.1 110.5 4 L 113.5 5 L 115 4.5 Q 114.3 6.8 116.5 6 L 118 5.5 Q 117.3 7.8 119.5 7 L 121 6.5 L 121.5 8 L 123 7.5 Q 122.3 9.8 124.5 9 L 126 8.5 L 125.5 10 L 127.5 9 L 128.5 11 L 130 10.5 L 130.5 12 L 132 11.5 L 131.5 13 L 135.5 15 L 137 14.5 L 138.5 17 Q 139.8 14.7 141 17.5 L 143.5 21 Q 144.8 18.8 146 21.5 L 153.5 30 L 157 32.5 Q 154.8 33.8 157.5 35 L 160 36.5 Q 157.8 37.8 160.5 39 L 162 39.5 Q 159.8 40.8 162.5 42 L 164 42.5 L 163.5 44 L 165 44.5 L 164.5 46 L 166 46.5 L 165.5 48 L 167 48.5 L 166.5 50 L 168 50.5 L 167.5 52 L 169 52.5 L 168.5 54 L 170 54.5 L 169 57 L 171 57.5 L 170 60 L 172 60.5 L 171 63 L 173 63.5 L 172 67 L 174 67.5 L 173 72 L 175 72.5 Q 172.5 74 174 79.5 L 176 81.5 L 176 93 Q 172.5 91.9 174 99.5 L 174.5 101 Q 171.5 100.1 173 104.5 L 173.5 106 Q 170.9 105.2 172 108.5 L 172.5 110 Q 170.3 109.3 171 111.5 L 171.5 113 Q 169.3 112.3 170 114.5 L 169 116.5 L 169.5 118 L 168 118.5 L 168.5 120 L 167 120.5 L 167.5 122 L 166 122.5 L 166.5 124 Q 164.3 123.3 165 125.5 L 159 136.5 L 159.5 138 L 158 138.5 L 158.5 140 L 157 140.5 L 157.5 142 L 155 143.5 L 154 145.5 L 154.5 147 L 153 147.5 L 153.5 149 L 151 150.5 L 151.5 152 L 149 153.5 L 149.5 155 L 147 156.5 L 146 158.5 L 146.5 160 L 145 159.5 L 144 161.5 L 144.5 163 L 142 164.5 L 142.5 166 L 140 167.5 L 140.5 169 L 139 169.5 L 139.5 171 L 138 170.5 L 137 172.5 L 137.5 174 L 136 173.5 L 135 175.5 L 135.5 177 L 134 176.5 L 133 178.5 L 133.5 180 L 131 181.5 L 131.5 183 L 130 183.5 L 130.5 185 L 129 184.5 L 128 186.5 L 128.5 188 L 126 189.5 L 125 191.5 L 125.5 193 L 123 194.5 L 122 196.5 L 122.5 198 L 121 198.5 L 121.5 200 L 120 199.5 L 119 201.5 L 119.5 203 L 118 203.5 L 118.5 205 L 117 205.5 L 117.5 207 L 116 206.5 L 110 218.5 L 110.5 220 L 109 220.5 L 109.5 222 L 108 222.5 L 108.5 224 Q 106.3 223.3 107 225.5 L 106 227.5 L 106.5 229 L 105 229.5 L 105.5 231 L 104 231.5 L 104.5 233 L 103 233.5 L 103.5 235 Q 101.3 234.3 102 236.5 L 102.5 238 L 101 238.5 L 101.5 240 Q 99.3 239.3 100 241.5 L 100.5 243 Q 98.3 242.3 99 244.5 L 98 246.5 L 98.5 248 Q 96.3 247.3 97 249.5 L 97.5 251 Q 95.3 250.3 96 252.5 L 96.5 254 Q 94.3 253.3 95 255.5 L 95.5 257 Q 93.3 256.3 94 258.5 L 94.5 260 Q 92.3 259.3 93 261.5 L 93.5 263 Q 91.3 262.3 92 264.5 L 93 267 Q 90.3 265.9 91 268.5 L 92 271 Q 89.3 269.9 90 272.5 L 91 275 Q 88.3 273.9 89 276.5 L 90 279 L 88 279 Q 89.1 276.3 86.5 277 L 87 275.5 Q 88.1 272.2 85.5 273 L 86 271.5 L 85.5 269 L 84 269.5 L 85 266 Q 82.3 267.1 83 264.5 L 84 262 L 82 261.5 L 83 259 L 81 258.5 L 82 256 L 80 255.5 L 81 253 L 79 252.5 L 80 250 L 78 249.5 L 79 247.5 L 78 245 L 76 244.5 L 77 242 L 75 241.5 L 75.5 240 L 74 239.5 L 75 237 L 73 236.5 L 73.5 235 L 72 234.5 L 73 232 L 71 231.5 L 71.5 230 L 70 229.5 L 70.5 228 L 69 227.5 L 69.5 226 L 68 225.5 L 69 223.5 L 61.5 210 L 60 209.5 L 60.5 208 L 59 207.5 L 59.5 206 L 58 205.5 L 58.5 204 L 57 203.5 L 57 201.5 L 56.5 200 L 55 200.5 L 55.5 199 L 54 198.5 L 54 196.5 L 52.5 194 L 51 193.5 L 51 191.5 L 49.5 189 L 48 188.5 L 48 186.5 L 47.5 185 L 46 185.5 L 46.5 184 L 45 183.5 Q 47.3 182.2 44.5 181 L 43 180.5 Q 45.3 179.3 42.5 178 L 41 177.5 L 41 175.5 L 40.5 174 L 39 174.5 L 39 172.5 L 38.5 171 L 37 171.5 L 37.5 170 L 36 169.5 Q 38.3 168.3 35.5 167 L 34 166.5 Q 36.3 165.3 33.5 164 L 32 163.5 L 32 161.5 L 31.5 160 L 30 160.5 L 30 158.5 L 28.5 156 L 27 155.5 Q 29.3 154.3 26.5 153 L 25 152.5 Q 27.2 151.3 24.5 150 L 23 149.5 L 23.5 148 L 22 147.5 L 22 145.5 L 20.5 143 L 19 142.5 L 19.5 141 L 18 140.5 L 18 138.5 L 16.5 136 L 15 135.5 L 15.5 134 L 14 133.5 L 14 131.5 L 12.5 128 L 11 128.5 L 11.5 127 L 10 126.5 L 10.5 125 L 9 124.5 L 10 122.5 L 8 122.5 L 9 120 L 7 119.5 L 7.5 118 L 6 117.5 L 6.5 116 L 5 115.5 L 6 113 L 4 112.5 L 5 110 L 3 109.5 L 4 106 L 2 105.5 L 3 101 L 1 100.5 Q 3.2 99.2 2 94.5 L 0 92.5 L 0 81.5 Q 3.5 80 2 73.5 L 1.5 72 Q 4.5 72.9 3 68.5 L 2.5 67 Q 5.1 67.8 4 64.5 L 3.5 63 Q 5.8 63.8 5 61.5 L 4.5 60 Q 6.8 60.8 6 58.5 L 5.5 57 Q 7.8 57.8 7 55.5 L 6.5 54 L 8 53.5 L 7.5 52 L 9 51.5 L 8.5 50 L 10 49.5 L 9.5 48 Q 11.8 48.8 11 46.5 L 11.5 44 L 13 43.5 L 12.5 42 L 15 40.5 L 14.5 39 L 17 37.5 Q 14.7 36.3 17.5 35 L 21 32.5 Q 18.8 31.3 21.5 30 L 30 22.5 L 32.5 19 Q 34.3 21.7 36 17.5 L 36.5 16 Q 37.8 18.3 39 15.5 L 39.5 14 L 41.5 14 L 43 13.5 L 42.5 12 L 44 12.5 L 44.5 11 L 46 11.5 L 46.5 10 L 48 10.5 L 48.5 9 L 50 9.5 L 50.5 8 L 52 8.5 L 52.5 7 L 55 8 L 55.5 6 L 57 6.5 L 57.5 5 L 60 6 L 60.5 4 L 64 5 L 64.5 3 L 68 4 L 68.5 2 L 73 3 L 73.5 1 Q 75 3.5 80.5 2 L 82.5 0 Z M 83 54 L 71 59 Q 60 66 57 80 Q 56 97 64 106 Q 69 112 78 115 L 88 117 L 99 115 L 108 110 Q 116 103 119 91 L 119 80 L 114 68 Q 106 53 83 54 Z " /><path fill="rgb(0,0,0)" stroke="rgb(0,0,0)" stroke-width="1" opacity="1" d="M 81.5 55 Q 91.8 53.7 98.5 56 L 110 63 L 117 74.5 Q 119.4 81.6 118 92.5 Q 115.1 104.1 106.5 110 Q 98.8 116.8 83.5 116 Q 69.9 113.1 63 103.5 L 58 92.5 L 58 78.5 L 62 68.5 L 66 63 L 71.5 59 L 81.5 55 Z " /><path fill="rgb(0,0,0)" stroke="rgb(0,0,0)" stroke-width="1" opacity="0" d="M 0 0 L 76 0.5 Q 39.8 6.3 21 29.5 Q 11 40.5 5 55.5 L 1 69.5 L 0.5 76 L 0 0 Z " /><path fill="rgb(0,0,0)" stroke="rgb(0,0,0)" stroke-width="1" opacity="0" d="M 99.5 0 L 176 0 L 176 74.5 L 175 74.5 L 173 61.5 L 165 43.5 Q 157.5 30.5 146.5 21 L 124.5 7 L 109.5 2 L 99.5 1 L 99.5 0 Z " /><path fill="rgb(0,0,0)" stroke="rgb(0,0,0)" stroke-width="1" opacity="0" d="M 0.5 98 L 2 107.5 L 10 127.5 Q 26.8 158.7 47 186.5 L 66 220.5 Q 80.7 249.9 88 286 L 0 286 L 0.5 98 Z " /><path fill="rgb(0,0,0)" stroke="rgb(0,0,0)" stroke-width="1" opacity="0" d="M 175.5 98 L 176 286 L 89.5 286 L 89 282.5 L 95 258.5 L 108 225.5 L 130 185.5 L 158 142.5 L 171 116.5 L 175.5 98 Z " /><path fill="rgb(253,229,161)" stroke="rgb(253,229,161)" stroke-width="1" opacity="1" d="M 76.5 0 L 82 0.5 L 76.5 1 L 76.5 0 Z " /><path fill="rgb(253,229,161)" stroke="rgb(253,229,161)" stroke-width="1" opacity="1" d="M 93.5 0 L 99 0.5 L 93.5 1 L 93.5 0 Z " /><path fill="rgb(253,229,161)" stroke="rgb(253,229,161)" stroke-width="1" opacity="1" d="M 70.5 1 L 73 1.5 L 70.5 2 L 70.5 1 Z " /><path fill="rgb(253,229,161)" stroke="rgb(253,229,161)" stroke-width="1" opacity="1" d="M 102.5 1 L 105 1.5 L 102.5 2 L 102.5 1 Z " /><path fill="rgb(253,229,161)" stroke="rgb(253,229,161)" stroke-width="1" opacity="1" d="M 65.5 2 L 68 2.5 L 65.5 3 L 65.5 2 Z " /><path fill="rgb(253,229,161)" stroke="rgb(253,229,161)" stroke-width="1" opacity="1" d="M 111.5 3 L 114 3.5 L 111.5 4 L 111.5 3 Z " /><path fill="rgb(253,229,161)" stroke="rgb(253,229,161)" stroke-width="1" opacity="1" d="M 132.5 11 L 133.5 13 L 132.5 11 Z " /><path fill="rgb(253,229,161)" stroke="rgb(253,229,161)" stroke-width="1" opacity="1" d="M 38.5 14 L 37.5 16 L 38.5 14 Z " /><path fill="rgb(253,229,161)" stroke="rgb(253,229,161)" stroke-width="1" opacity="1" d="M 34.5 17 L 33.5 19 L 34.5 17 Z " /><path fill="rgb(253,229,161)" stroke="rgb(253,229,161)" stroke-width="1" opacity="1" d="M 141.5 17 L 143.5 20 L 141.5 17 Z " /><path fill="rgb(253,229,161)" stroke="rgb(253,229,161)" stroke-width="1" opacity="1" d="M 30.5 20 L 21.5 30 L 30.5 20 Z " /><path fill="rgb(253,229,161)" stroke="rgb(253,229,161)" stroke-width="1" opacity="1" d="M 146.5 21 L 154.5 30 L 146.5 21 Z " /><path fill="rgb(253,229,161)" stroke="rgb(253,229,161)" stroke-width="1" opacity="1" d="M 19.5 32 L 17.5 35 L 19.5 32 Z " /><path fill="rgb(253,229,161)" stroke="rgb(253,229,161)" stroke-width="1" opacity="1" d="M 157.5 33 L 158.5 35 L 157.5 33 Z " /><path fill="rgb(253,229,161)" stroke="rgb(253,229,161)" stroke-width="1" opacity="1" d="M 15.5 37 L 14.5 39 L 15.5 37 Z " /><path fill="rgb(253,229,161)" stroke="rgb(253,229,161)" stroke-width="1" opacity="1" d="M 160.5 37 L 161.5 39 L 160.5 37 Z " /><path fill="rgb(253,229,161)" stroke="rgb(253,229,161)" stroke-width="1" opacity="1" d="M 13.5 40 L 12.5 42 L 13.5 40 Z " /><path fill="rgb(253,229,161)" stroke="rgb(253,229,161)" stroke-width="1" opacity="1" d="M 1.5 69 L 2 71.5 L 1 71.5 L 1.5 69 Z " /><path fill="rgb(253,229,161)" stroke="rgb(253,229,161)" stroke-width="1" opacity="1" d="M 174.5 69 L 175 71.5 L 174 71.5 L 174.5 69 Z " /><path fill="rgb(253,229,161)" stroke="rgb(253,229,161)" stroke-width="1" opacity="1" d="M 175.5 75 L 176 80.5 L 175 80.5 L 175.5 75 Z " /><path fill="rgb(253,229,161)" stroke="rgb(253,229,161)" stroke-width="1" opacity="1" d="M 0.5 76 L 1 80.5 L 0 80.5 L 0.5 76 Z " /><path fill="rgb(253,229,161)" stroke="rgb(253,229,161)" stroke-width="1" opacity="1" d="M 0.5 93 L 1 97.5 L 0 97.5 L 0.5 93 Z " /><path fill="rgb(253,229,161)" stroke="rgb(253,229,161)" stroke-width="1" opacity="1" d="M 175.5 93 L 176 97.5 L 175 97.5 L 175.5 93 Z " /><path fill="rgb(253,229,161)" stroke="rgb(253,229,161)" stroke-width="1" opacity="1" d="M 1.5 101 L 2 103.5 L 1 103.5 L 1.5 101 Z " /><path fill="rgb(253,229,161)" stroke="rgb(253,229,161)" stroke-width="1" opacity="1" d="M 174.5 101 L 175 103.5 L 174 103.5 L 174.5 101 Z " /><path fill="rgb(253,229,161)" stroke="rgb(253,229,161)" stroke-width="1" opacity="1" d="M 15.5 136 L 16.5 138 L 15.5 136 Z " /><path fill="rgb(253,229,161)" stroke="rgb(253,229,161)" stroke-width="1" opacity="1" d="M 157.5 142 L 156.5 144 L 157.5 142 Z " /><path fill="rgb(253,229,161)" stroke="rgb(253,229,161)" stroke-width="1" opacity="1" d="M 19.5 143 L 20.5 145 L 19.5 143 Z " /><path fill="rgb(253,229,161)" stroke="rgb(253,229,161)" stroke-width="1" opacity="1" d="M 153.5 149 L 152.5 151 L 153.5 149 Z " /><path fill="rgb(253,229,161)" stroke="rgb(253,229,161)" stroke-width="1" opacity="1" d="M 151.5 152 L 150.5 154 L 151.5 152 Z " /><path fill="rgb(253,229,161)" stroke="rgb(253,229,161)" stroke-width="1" opacity="1" d="M 25.5 153 L 26.5 155 L 25.5 153 Z " /><path fill="rgb(253,229,161)" stroke="rgb(253,229,161)" stroke-width="1" opacity="1" d="M 149.5 155 L 148.5 157 L 149.5 155 Z " /><path fill="rgb(253,229,161)" stroke="rgb(253,229,161)" stroke-width="1" opacity="1" d="M 27.5 156 L 28.5 158 L 27.5 156 Z " /><path fill="rgb(253,229,161)" stroke="rgb(253,229,161)" stroke-width="1" opacity="1" d="M 30.5 161 L 31.5 163 L 30.5 161 Z " /><path fill="rgb(253,229,161)" stroke="rgb(253,229,161)" stroke-width="1" opacity="1" d="M 144.5 163 L 143.5 165 L 144.5 163 Z " /><path fill="rgb(253,229,161)" stroke="rgb(253,229,161)" stroke-width="1" opacity="1" d="M 32.5 164 L 33.5 166 L 32.5 164 Z " /><path fill="rgb(253,229,161)" stroke="rgb(253,229,161)" stroke-width="1" opacity="1" d="M 142.5 166 L 141.5 168 L 142.5 166 Z " /><path fill="rgb(253,229,161)" stroke="rgb(253,229,161)" stroke-width="1" opacity="1" d="M 34.5 167 L 35.5 169 L 34.5 167 Z " /><path fill="rgb(253,229,161)" stroke="rgb(253,229,161)" stroke-width="1" opacity="1" d="M 41.5 178 L 42.5 180 L 41.5 178 Z " /><path fill="rgb(253,229,161)" stroke="rgb(253,229,161)" stroke-width="1" opacity="1" d="M 133.5 180 L 132.5 182 L 133.5 180 Z " /><path fill="rgb(253,229,161)" stroke="rgb(253,229,161)" stroke-width="1" opacity="1" d="M 43.5 181 L 44.5 183 L 43.5 181 Z " /><path fill="rgb(253,229,161)" stroke="rgb(253,229,161)" stroke-width="1" opacity="1" d="M 128.5 188 L 127.5 190 L 128.5 188 Z " /><path fill="rgb(253,229,161)" stroke="rgb(253,229,161)" stroke-width="1" opacity="1" d="M 48.5 189 L 49.5 191 L 48.5 189 Z " /><path fill="rgb(253,229,161)" stroke="rgb(253,229,161)" stroke-width="1" opacity="1" d="M 125.5 193 L 124.5 195 L 125.5 193 Z " /><path fill="rgb(253,229,161)" stroke="rgb(253,229,161)" stroke-width="1" opacity="1" d="M 51.5 194 L 52.5 196 L 51.5 194 Z " /><path fill="rgb(253,229,161)" stroke="rgb(253,229,161)" stroke-width="1" opacity="1" d="M 121.5 200 L 120.5 202 L 121.5 200 Z " /><path fill="rgb(253,229,161)" stroke="rgb(253,229,161)" stroke-width="1" opacity="1" d="M 55.5 201 L 56.5 203 L 55.5 201 Z " /><path fill="rgb(253,229,161)" stroke="rgb(253,229,161)" stroke-width="1" opacity="1" d="M 117.5 207 L 117 208.5 L 115.5 211 L 116 209.5 L 117.5 207 Z " /><path fill="rgb(253,229,161)" stroke="rgb(253,229,161)" stroke-width="1" opacity="1" d="M 60.5 210 L 63 213.5 L 61 212.5 L 60.5 210 Z " /><path fill="rgb(253,229,161)" stroke="rgb(253,229,161)" stroke-width="1" opacity="1" d="M 66.5 221 L 68 224.5 L 67 224.5 L 66.5 221 Z " /><path fill="rgb(253,229,161)" stroke="rgb(253,229,161)" stroke-width="1" opacity="1" d="M 86.5 277 L 87 279.5 L 86 279.5 L 86.5 277 Z " /><path fill="rgb(253,229,161)" stroke="rgb(253,229,161)" stroke-width="1" opacity="1" d="M 89.5 279 L 90 281.5 L 89 281.5 L 89.5 279 Z " /><path fill="rgb(253,229,161)" stroke="rgb(253,229,161)" stroke-width="1" opacity="1" d="M 87.5 282 L 89 285.5 L 88 285.5 L 87.5 282 Z " /><path fill="rgb(137,111,23)" stroke="rgb(137,111,23)" stroke-width="1" opacity="1" d="M 83.5 54 L 93 54.5 L 83.5 55 L 83.5 54 Z " /><path fill="rgb(137,111,23)" stroke="rgb(137,111,23)" stroke-width="1" opacity="1" d="M 69.5 60 L 67.5 63 L 69.5 60 Z " /><path fill="rgb(137,111,23)" stroke="rgb(137,111,23)" stroke-width="1" opacity="1" d="M 106.5 60 L 108.5 63 L 106.5 60 Z " /><path fill="rgb(137,111,23)" stroke="rgb(137,111,23)" stroke-width="1" opacity="1" d="M 65.5 64 L 63.5 67 L 65.5 64 Z " /><path fill="rgb(137,111,23)" stroke="rgb(137,111,23)" stroke-width="1" opacity="1" d="M 110.5 64 L 112.5 67 L 110.5 64 Z " /><path fill="rgb(137,111,23)" stroke="rgb(137,111,23)" stroke-width="1" opacity="1" d="M 57.5 80 L 58 90.5 L 57 90.5 L 57.5 80 Z " /><path fill="rgb(137,111,23)" stroke="rgb(137,111,23)" stroke-width="1" opacity="1" d="M 118.5 80 L 119 90.5 L 118 90.5 L 118.5 80 Z " /><path fill="rgb(137,111,23)" stroke="rgb(137,111,23)" stroke-width="1" opacity="1" d="M 64.5 105 L 67.5 109 L 64.5 105 Z " /><path fill="rgb(137,111,23)" stroke="rgb(137,111,23)" stroke-width="1" opacity="1" d="M 111.5 105 L 108.5 109 L 111.5 105 Z " /><path fill="rgb(137,111,23)" stroke="rgb(137,111,23)" stroke-width="1" opacity="1" d="M 70.5 110 L 71.5 112 L 70.5 110 Z " /><path fill="rgb(137,111,23)" stroke="rgb(137,111,23)" stroke-width="1" opacity="1" d="M 105.5 110 L 104.5 112 L 105.5 110 Z " /><path fill="rgb(137,111,23)" stroke="rgb(137,111,23)" stroke-width="1" opacity="1" d="M 80.5 115 L 83 115.5 L 80.5 116 L 80.5 115 Z " /><path fill="rgb(137,111,23)" stroke="rgb(137,111,23)" stroke-width="1" opacity="1" d="M 93.5 115 L 96 115.5 L 93.5 116 L 93.5 115 Z " /></svg>